<?xml version="1.0" encoding="UTF-8" standalone="no"?>
<svg
   xmlns:dc="http://purl.org/dc/elements/1.1/"
   xmlns:cc="http://creativecommons.org/ns#"
   xmlns:rdf="http://www.w3.org/1999/02/22-rdf-syntax-ns#"
   xmlns:svg="http://www.w3.org/2000/svg"
   xmlns="http://www.w3.org/2000/svg"
   xmlns:sodipodi="http://sodipodi.sourceforge.net/DTD/sodipodi-0.dtd"
   xmlns:inkscape="http://www.inkscape.org/namespaces/inkscape"
   viewBox="0 0 400 795"
   enable-background="new 0 0 307 609"
   id="svg2"
   version="1.1"
   inkscape:version="0.48.4 r9939"
   width="100%"
   height="100%"
   sodipodi:docname="outline.svg">
  <metadata
     id="metadata24">
    <rdf:RDF>
      <cc:Work
         rdf:about="">
        <dc:format>image/svg+xml</dc:format>
        <dc:type
           rdf:resource="http://purl.org/dc/dcmitype/StillImage" />
        <dc:title></dc:title>
      </cc:Work>
    </rdf:RDF>
  </metadata>
  <defs
     id="defs22" />
  <sodipodi:namedview
     pagecolor="#ffffff"
     bordercolor="#666666"
     borderopacity="1"
     objecttolerance="10"
     gridtolerance="10"
     guidetolerance="10"
     inkscape:pageopacity="0"
     inkscape:pageshadow="2"
     inkscape:window-width="1261"
     inkscape:window-height="904"
     id="namedview20"
     showgrid="false"
     inkscape:zoom="0.77504105"
     inkscape:cx="117.26863"
     inkscape:cy="424.5939"
     inkscape:window-x="196"
     inkscape:window-y="60"
     inkscape:window-maximized="0"
     inkscape:current-layer="svg2" />
  <g
     clip-rule="evenodd"
     id="g4"
     transform="scale(1.3029316,1.3054187)"
     style="fill-rule:evenodd">
    <path
       d="m 306,78 h -2 c -0.6,0 -1,0.4 -1,1 v 37 c 0,0.6 0.4,1 1,1 h 2 c 0.6,0 1,-0.4 1,-1 V 79 c 0,-0.6 -0.4,-1 -1,-1 z M 3,118 H 1 c -0.6,0 -1,0.4 -1,1 v 94 c 0,0.6 0.4,1 1,1 h 2 c 0.6,0 1,-0.4 1,-1 v -94 c 0,-0.6 -0.4,-1 -1,-1 z"
       id="path6"
       inkscape:connector-curvature="0"
       style="fill:#333333" />
    <path
       d="M 304.9,29 C 304.5,20.9 299.2,14.6 291.8,12.1 272.1,4.4 218.3,0 153.5,0 88.7,0 34.9,4.4 15.1,12.1 7.8,14.6 2.5,20.9 2.1,29 H 2 v 551 h 0.1 c 0.4,8.1 5.7,14.4 13.1,16.9 19.8,7.7 73.6,12.1 138.4,12.1 64.8,0 118.6,-4.4 138.4,-12.1 7.3,-2.4 12.7,-8.7 13.1,-16.9 h 0.1 L 304.9,29 z"
       id="path8"
       inkscape:connector-curvature="0" />
    <circle
       cx="52"
       cy="31"
       r="4"
       id="circle10"
       d="m 56,31 c 0,2.209139 -1.790861,4 -4,4 -2.209139,0 -4,-1.790861 -4,-4 0,-2.209139 1.790861,-4 4,-4 2.209139,0 4,1.790861 4,4 z"
       sodipodi:cx="52"
       sodipodi:cy="31"
       sodipodi:rx="4"
       sodipodi:ry="4"
       style="fill:#222222" />
    <circle
       cx="52"
       cy="31"
       r="1"
       id="circle12"
       d="m 53,31 c 0,0.552285 -0.447715,1 -1,1 -0.552285,0 -1,-0.447715 -1,-1 0,-0.552285 0.447715,-1 1,-1 0.552285,0 1,0.447715 1,1 z"
       sodipodi:cx="52"
       sodipodi:cy="31"
       sodipodi:rx="1"
       sodipodi:ry="1"
       style="fill:#0099cc" />
    <circle
       cx="153.5"
       cy="29.5"
       r="7.5"
       id="circle14"
       d="m 161,29.5 c 0,4.142136 -3.35786,7.5 -7.5,7.5 -4.14214,0 -7.5,-3.357864 -7.5,-7.5 0,-4.142136 3.35786,-7.5 7.5,-7.5 4.14214,0 7.5,3.357864 7.5,7.5 z"
       sodipodi:cx="153.5"
       sodipodi:cy="29.5"
       sodipodi:rx="7.5"
       sodipodi:ry="7.5"
       style="fill:#222222" />
    <path
       d="m 150.5,27 c 0.3,0 0.5,-0.2 0.5,-0.5 0,-0.3 -0.2,-0.5 -0.5,-0.5 -0.3,0 -0.5,0.2 -0.5,0.5 0,0.3 0.2,0.5 0.5,0.5 z m 6,-1 c -0.3,0 -0.5,0.2 -0.5,0.5 0,0.3 0.2,0.5 0.5,0.5 0.3,0 0.5,-0.2 0.5,-0.5 0,-0.3 -0.2,-0.5 -0.5,-0.5 z m 2,3 c -0.3,0 -0.5,0.2 -0.5,0.5 0,0.3 0.2,0.5 0.5,0.5 0.3,0 0.5,-0.2 0.5,-0.5 0,-0.3 -0.2,-0.5 -0.5,-0.5 z m -2,3 c -0.3,0 -0.5,0.2 -0.5,0.5 0,0.3 0.2,0.5 0.5,0.5 0.3,0 0.5,-0.2 0.5,-0.5 0,-0.3 -0.2,-0.5 -0.5,-0.5 z m -3,2 c -0.3,0 -0.5,0.2 -0.5,0.5 0,0.3 0.2,0.5 0.5,0.5 0.3,0 0.5,-0.2 0.5,-0.5 0,-0.3 -0.2,-0.5 -0.5,-0.5 z m -2,-5 c -0.3,0 -0.5,0.2 -0.5,0.5 0,0.3 0.2,0.5 0.5,0.5 0.3,0 0.5,-0.2 0.5,-0.5 0,-0.3 -0.2,-0.5 -0.5,-0.5 z m 4,0 c -0.3,0 -0.5,0.2 -0.5,0.5 0,0.3 0.2,0.5 0.5,0.5 0.3,0 0.5,-0.2 0.5,-0.5 0,-0.3 -0.2,-0.5 -0.5,-0.5 z m -2,-2 c -0.3,0 -0.5,0.2 -0.5,0.5 0,0.3 0.2,0.5 0.5,0.5 0.3,0 0.5,-0.2 0.5,-0.5 0,-0.3 -0.2,-0.5 -0.5,-0.5 z m 0,4 c -0.3,0 -0.5,0.2 -0.5,0.5 0,0.3 0.2,0.5 0.5,0.5 0.3,0 0.5,-0.2 0.5,-0.5 0,-0.3 -0.2,-0.5 -0.5,-0.5 z m -3,1 c -0.3,0 -0.5,0.2 -0.5,0.5 0,0.3 0.2,0.5 0.5,0.5 0.3,0 0.5,-0.2 0.5,-0.5 0,-0.3 -0.2,-0.5 -0.5,-0.5 z m -2,-3 c -0.3,0 -0.5,0.2 -0.5,0.5 0,0.3 0.2,0.5 0.5,0.5 0.3,0 0.5,-0.2 0.5,-0.5 0,-0.3 -0.2,-0.5 -0.5,-0.5 z m 5,-5 c -0.3,0 -0.5,0.2 -0.5,0.5 0,0.3 0.2,0.5 0.5,0.5 0.3,0 0.5,-0.2 0.5,-0.5 0,-0.3 -0.2,-0.5 -0.5,-0.5 z"
       id="path16"
       inkscape:connector-curvature="0" />
  </g>
  <path
     clip-rule="evenodd"
     d="M 20,86 H 380 V 726 H 20 z"
     id="path18"
     inkscape:connector-curvature="0"
     style="fill:#fafafa;fill-rule:evenodd" />
</svg>
